<svg width="24" height="24" viewBox="0 0 24 24" fill="none" xmlns="http://www.w3.org/2000/svg">
<path d="M21 21.0002H17V14.2502C17 13.1916 15.8121 12.306 14.7535 12.306C13.6949 12.306 13 13.1916 13 14.2502V21.0002H9.00001V9.00024H13V11.0002C13.6623 9.92881 15.3564 9.23751 16.525 9.23751C18.9965 9.23751 21 11.2788 21 13.7502V21.0002ZM7 21.0002H3V9.00024H7V21.0002ZM5.00001 3.00024C6.10458 3.00024 7.00001 3.89567 7.00001 5.00024C7.00001 6.10481 6.10458 7.00024 5.00001 7.00024C3.89544 7.00024 3.00001 6.10481 3.00001 5.00024C3.00001 3.89567 3.89544 3.00024 5.00001 3.00024Z" fill="#FF8B59"/>
</svg>
