<svg width="24" height="24" viewBox="0 0 24 24" fill="none" xmlns="http://www.w3.org/2000/svg">
<path d="M22.4594 6.01311C21.6898 6.35446 20.8626 6.58515 19.9946 6.68888C20.8805 6.15774 21.5611 5.31671 21.8815 4.31451C21.0522 4.80637 20.1338 5.16351 19.1562 5.35593C18.3734 4.52185 17.2581 4.00073 16.0237 4.00073C13.6536 4.00073 11.7319 5.9222 11.7319 8.29228C11.7319 8.62863 11.7699 8.95619 11.8431 9.27033C8.27633 9.09133 5.114 7.38276 2.99734 4.78624C2.6279 5.42008 2.41626 6.15729 2.41626 6.94382C2.41626 8.43277 3.17389 9.74636 4.32548 10.516C3.62204 10.4936 2.96021 10.3006 2.38164 9.97919C2.38123 9.99712 2.38123 10.015 2.38123 10.0331C2.38123 12.1125 3.86057 13.847 5.82383 14.2413C5.46373 14.3394 5.08458 14.3919 4.69318 14.3919C4.41665 14.3919 4.1478 14.3649 3.88571 14.3149C4.43186 16.0198 6.01677 17.2607 7.89478 17.2952C6.426 18.4464 4.57552 19.1325 2.56478 19.1325C2.21837 19.1325 1.87676 19.1121 1.54102 19.0724C3.44028 20.2901 5.69615 21.0007 8.11974 21.0007C16.0136 21.0007 20.3304 14.4612 20.3304 8.78991C20.3304 8.60387 20.3262 8.41878 20.3179 8.23468C21.1565 7.62959 21.8841 6.87375 22.4594 6.01311Z" fill="#FF8B59"/>
</svg>
